<svg xmlns="http://www.w3.org/2000/svg" xmlns:xlink="http://www.w3.org/1999/xlink" width="225" height="134" viewBox="0 0 225 134">
  <defs>
    <clipPath id="clip-path">
      <rect id="Rectangle_1" data-name="Rectangle 1" width="225" height="134" transform="translate(1249 1850)" fill="#fff" stroke="#707070" stroke-width="1"/>
    </clipPath>
  </defs>
  <g id="Mask_Group_1" data-name="Mask Group 1" transform="translate(-1249 -1850)" clip-path="url(#clip-path)">
    <g id="logo" transform="translate(1248.991 1898.744)">
      <path id="Path_1" data-name="Path 1" d="M26.264.825C19.01.822,11.44,2.456,3.8,4.575A3.89,3.89,0,0,0,1.383,6.191,6.155,6.155,0,0,0,.612,8.452a59.971,59.971,0,0,0-.5,12.766,6.4,6.4,0,0,0,.671,3.01,3.431,3.431,0,0,0,2.405,1.39q1.981.291,3.974.493L6.872,34.28a1.763,1.763,0,0,0,.667,1.5,2.112,2.112,0,0,0,1.15.418,2.293,2.293,0,0,0,2.226-1.18,29.478,29.478,0,0,1,5.932-8.353,187.56,187.56,0,0,0,19.235-.7A4.9,4.9,0,0,0,40.47,22.45c1.274-3.974,1.473-8.88,1.608-13.84a6.317,6.317,0,0,0-1.831-4.915,9.818,9.818,0,0,0-3.811-1.613A48.919,48.919,0,0,0,26.264.825Zm9.664,3.108A8.82,8.82,0,0,1,39.036,5.19a3.958,3.958,0,0,1,1.127,3.451c-.133,4.81-.364,9.479-1.45,13.016a3.173,3.173,0,0,1-2.823,2.4,181.784,181.784,0,0,1-19.446.694.969.969,0,0,0-.717.284,31.858,31.858,0,0,0-6.5,9.087.35.35,0,0,1-.3.164.139.139,0,0,1-.133-.139l.295-8.858a.99.99,0,0,0-.852-.986q-2.383-.228-4.752-.582c-.682-.1-.933-.291-1.12-.569a4.773,4.773,0,0,1-.343-2,58.716,58.716,0,0,1,.461-12.3A5.535,5.535,0,0,1,3,7.192a2.252,2.252,0,0,1,1.544-.842C12.012,4.286,19.322,2.743,26.2,2.738a47.273,47.273,0,0,1,9.724,1.2Zm-25.806,7.6A3.315,3.315,0,0,0,9.99,15.56a2.751,2.751,0,0,0,1.852,1.166,3.417,3.417,0,0,0,2.376-.808,3.343,3.343,0,0,0,.433-4.423,2.688,2.688,0,0,0-2.083-1.165,3.11,3.11,0,0,0-2.446,1.2Zm11.134-1.007A3.083,3.083,0,0,0,18.9,12.034a3.169,3.169,0,0,0-.449,3.048c.9,2.069,4.017,2.044,5.259-.059a2.93,2.93,0,0,0,0-2.87,2.8,2.8,0,0,0-2-1.6,2.342,2.342,0,0,0-.448-.03Zm9.039.194a3.446,3.446,0,0,0-.956.1,3,3,0,0,0-2.122,3.228,3.172,3.172,0,0,0,1.136,2.167,3.253,3.253,0,0,0,2.7.582,2.907,2.907,0,0,0,2.182-2.136,3.009,3.009,0,0,0-.389-2.645,3.259,3.259,0,0,0-2.554-1.3Zm-17.81,1.524a.669.669,0,0,1,.6.344,1.545,1.545,0,0,1-.12,1.883c-.42.366-.682.4-.866.374a.833.833,0,0,1-.538-.389,1.375,1.375,0,0,1,.927-2.212Zm8.906.209a1.553,1.553,0,0,1,.627.6.97.97,0,0,1,.045,1,1.158,1.158,0,0,1-1.869.27,1.8,1.8,0,0,1,.3-1.24,1.162,1.162,0,0,1,.9-.629Zm9.921.7a1.7,1.7,0,0,1,.09,1.016.89.89,0,0,1-.733.762,1.224,1.224,0,0,1-1.12-.194,1.288,1.288,0,0,1-.434-.867c-.085-.864.225-1.064.717-1.2A1.478,1.478,0,0,1,31.311,13.155Z" fill="#fff"/>
      <path id="Path_2" data-name="Path 2" d="M54.1,4.692a1.1,1.1,0,0,1,.27-.658.822.822,0,0,1,.658-.291h6.41a1.1,1.1,0,0,1,.669.27.829.829,0,0,1,.346.68v10.23H73.181V4.692a.942.942,0,0,1,.971-.95h6.324a1.332,1.332,0,0,1,.755.216.771.771,0,0,1,.324.691V34.841a.878.878,0,0,1-.282.712,1.091,1.091,0,0,1-.733.238H74.152a1.022,1.022,0,0,1-.7-.238.9.9,0,0,1-.27-.712V22.583H62.455V34.841a.874.874,0,0,1-.291.7,1.178,1.178,0,0,1-.789.248H55.03q-.906,0-.928-.841V4.692ZM113.15,35.424a1.339,1.339,0,0,1-.594.3,2.933,2.933,0,0,1-.593.066H108.7a1.477,1.477,0,0,1-.67-.141,1.44,1.44,0,0,1-.475-.378,2.239,2.239,0,0,1-.323-.54,4.588,4.588,0,0,1-.216-.625l-.669-2.763a10.46,10.46,0,0,1-.939,1.521,7.978,7.978,0,0,1-1.565,1.6,8.7,8.7,0,0,1-2.266,1.253,8.369,8.369,0,0,1-3.022.507,10.176,10.176,0,0,1-7.888-3.54,11.878,11.878,0,0,1-2.19-3.832,13.857,13.857,0,0,1-.778-4.671V10.044A1.876,1.876,0,0,1,88.062,8.8a1.4,1.4,0,0,1,1.133-.421h4.985a1.925,1.925,0,0,1,1.273.313A1.634,1.634,0,0,1,95.8,9.914V23.963a3.851,3.851,0,0,0,.421,1.76,5.129,5.129,0,0,0,1.112,1.467,5.32,5.32,0,0,0,1.565,1,4.565,4.565,0,0,0,1.781.366,3.978,3.978,0,0,0,1.608-.366,5.974,5.974,0,0,0,1.532-.982,5.246,5.246,0,0,0,1.155-1.446,3.616,3.616,0,0,0,.453-1.758V9.979a2.037,2.037,0,0,1,.141-.733,1.172,1.172,0,0,1,.421-.562,1.989,1.989,0,0,1,.529-.237,2.275,2.275,0,0,1,.572-.066h4.878a1.729,1.729,0,0,1,1.337.454,1.734,1.734,0,0,1,.41,1.209v24.15a1.588,1.588,0,0,1-.183.755,1.35,1.35,0,0,1-.507.539l.129-.064Zm25.057-2.979q-.583.583-1.284,1.252a12.7,12.7,0,0,1-1.543,1.252,8.733,8.733,0,0,1-1.812.961,5.726,5.726,0,0,1-2.094.378,13.132,13.132,0,0,1-5.407-1.1,12.938,12.938,0,0,1-4.251-3.011,13.86,13.86,0,0,1-2.784-4.5,15.26,15.26,0,0,1-1-5.568,15.232,15.232,0,0,1,1-5.578,13.9,13.9,0,0,1,2.784-4.489,12.805,12.805,0,0,1,4.251-3,13.249,13.249,0,0,1,5.407-1.09,6.5,6.5,0,0,1,2.169.346,7.992,7.992,0,0,1,1.791.885,9.771,9.771,0,0,1,1.489,1.219q.679.68,1.284,1.328V1.864A1.7,1.7,0,0,1,138.627.7,1.6,1.6,0,0,1,139.89.224h4.855a1.676,1.676,0,0,1,.594.118,2.012,2.012,0,0,1,.573.335,1.743,1.743,0,0,1,.42.517,1.394,1.394,0,0,1,.162.669V34.129q0,1.662-1.749,1.662h-4.23a1.666,1.666,0,0,1-.669-.109,1.061,1.061,0,0,1-.4-.313,2.177,2.177,0,0,1-.291-.517q-.153-.365-.323-.723l-.626-1.684ZM125.8,22.108a7.879,7.879,0,0,0,.442,2.666,6.315,6.315,0,0,0,1.263,2.147,6,6,0,0,0,1.974,1.435,6.065,6.065,0,0,0,2.558.529,6.839,6.839,0,0,0,2.6-.5,6.628,6.628,0,0,0,2.125-1.371,6.833,6.833,0,0,0,2.073-4.607v-.3a6.818,6.818,0,0,0-.518-2.632,6.975,6.975,0,0,0-1.435-2.2,6.8,6.8,0,0,0-2.158-1.5,6.552,6.552,0,0,0-2.687-.55,5.867,5.867,0,0,0-2.558.55,5.959,5.959,0,0,0-1.974,1.5,6.8,6.8,0,0,0-1.263,2.2,7.842,7.842,0,0,0-.441,2.632ZM171.55,32.446q-.583.583-1.285,1.252a12.7,12.7,0,0,1-1.543,1.252,8.733,8.733,0,0,1-1.812.961,5.726,5.726,0,0,1-2.094.378,13.125,13.125,0,0,1-5.406-1.1,12.938,12.938,0,0,1-4.252-3.011,13.876,13.876,0,0,1-2.784-4.5,15.279,15.279,0,0,1-1-5.568,15.252,15.252,0,0,1,1-5.578,13.9,13.9,0,0,1,2.784-4.489,12.805,12.805,0,0,1,4.252-3,13.241,13.241,0,0,1,5.406-1.09,6.5,6.5,0,0,1,2.169.346,7.992,7.992,0,0,1,1.791.885,9.772,9.772,0,0,1,1.489,1.219q.68.68,1.284,1.328V1.864A1.7,1.7,0,0,1,171.97.7a1.6,1.6,0,0,1,1.263-.475h4.855a1.676,1.676,0,0,1,.594.118,1.987,1.987,0,0,1,.573.335,1.746,1.746,0,0,1,.421.517,1.4,1.4,0,0,1,.162.669V34.129q0,1.662-1.749,1.662h-4.23a1.666,1.666,0,0,1-.669-.109,1.061,1.061,0,0,1-.4-.313,2.178,2.178,0,0,1-.291-.517q-.153-.365-.324-.723l-.626-1.684ZM159.14,22.108a7.879,7.879,0,0,0,.442,2.666,6.346,6.346,0,0,0,1.263,2.147,6,6,0,0,0,1.975,1.435,6.06,6.06,0,0,0,2.557.529,6.839,6.839,0,0,0,2.6-.5,6.628,6.628,0,0,0,2.126-1.371,6.849,6.849,0,0,0,2.072-4.607v-.3a6.818,6.818,0,0,0-.518-2.632,6.975,6.975,0,0,0-1.435-2.2,6.8,6.8,0,0,0-2.158-1.5,6.552,6.552,0,0,0-2.687-.55,5.86,5.86,0,0,0-2.557.55,5.963,5.963,0,0,0-1.975,1.5,6.8,6.8,0,0,0-1.263,2.2,7.842,7.842,0,0,0-.441,2.632ZM185.579,1.886a1.926,1.926,0,0,1,.345-1.165,1.37,1.37,0,0,1,1.187-.475H192.4a1.014,1.014,0,0,1,.454.118,1.6,1.6,0,0,1,.442.335,1.916,1.916,0,0,1,.346.517,1.565,1.565,0,0,1,.141.669V34.129a1.589,1.589,0,0,1-.465,1.241,1.711,1.711,0,0,1-1.2.421h-5.007a1.463,1.463,0,0,1-1.187-.421,1.921,1.921,0,0,1-.345-1.241ZM221.923,32.51a14.378,14.378,0,0,1-4.273,2.73,13.025,13.025,0,0,1-5.029.982,14.688,14.688,0,0,1-10.208-4.068,14.343,14.343,0,0,1-3.151-4.5,13.552,13.552,0,0,1-1.165-5.633,14.583,14.583,0,0,1,1.781-7.013,14.138,14.138,0,0,1,2.072-2.86,13.107,13.107,0,0,1,2.73-2.234,13.455,13.455,0,0,1,3.28-1.446,13.226,13.226,0,0,1,3.733-.517,12.739,12.739,0,0,1,3.475.475,13.543,13.543,0,0,1,3.162,1.337,13.745,13.745,0,0,1,2.708,2.073,13.988,13.988,0,0,1,2.115,2.644,12.754,12.754,0,0,1,1.371,3.064,11.712,11.712,0,0,1,.486,3.355q0,1.123-.033,1.835a2.075,2.075,0,0,1-.334,1.133,1.617,1.617,0,0,1-1,.582,9.745,9.745,0,0,1-2.06.162H206.039a5.378,5.378,0,0,0,.873,2.31,5.486,5.486,0,0,0,1.521,1.477,6.107,6.107,0,0,0,1.835.789,7.738,7.738,0,0,0,1.834.237,8.3,8.3,0,0,0,1.6-.162,11.438,11.438,0,0,0,1.587-.432,8.974,8.974,0,0,0,1.4-.626,4.669,4.669,0,0,0,1.026-.744,4.478,4.478,0,0,1,.594-.422,1.053,1.053,0,0,1,.529-.14,1.04,1.04,0,0,1,.573.194,4.51,4.51,0,0,1,.657.561l2.288,2.59a1.463,1.463,0,0,1,.3.507,1.682,1.682,0,0,1,.065.464,1.2,1.2,0,0,1-.238.745,2.714,2.714,0,0,1-.562.55ZM211.542,14.533a4.134,4.134,0,0,0-1.629.334,6.149,6.149,0,0,0-1.479.9,7.694,7.694,0,0,0-1.241,1.273,7.809,7.809,0,0,0-.9,1.446h11.028a12.712,12.712,0,0,0-.981-1.554,6.649,6.649,0,0,0-1.209-1.252,5.22,5.22,0,0,0-1.554-.841,6.225,6.225,0,0,0-2.039-.3Z" fill="#fff"/>
    </g>
  </g>
</svg>
